<?xml version="1.0" encoding="UTF-8" standalone="no"?>
<!-- Created with Inkscape (http://www.inkscape.org/) -->

<svg
   xmlns:dc="http://purl.org/dc/elements/1.1/"
   xmlns:cc="http://creativecommons.org/ns#"
   xmlns:rdf="http://www.w3.org/1999/02/22-rdf-syntax-ns#"
   xmlns:svg="http://www.w3.org/2000/svg"
   xmlns="http://www.w3.org/2000/svg"
   xmlns:sodipodi="http://sodipodi.sourceforge.net/DTD/sodipodi-0.dtd"
   xmlns:inkscape="http://www.inkscape.org/namespaces/inkscape"
   width="744.09448819"
   height="1052.3622047"
   id="svg2"
   version="1.1"
   inkscape:version="0.48.2 r9819"
   sodipodi:docname="New document 1">
  <defs
     id="defs4">
    <marker
       inkscape:stockid="Arrow1Lend"
       orient="auto"
       refY="0.0"
       refX="0.0"
       id="Arrow1Lend"
       style="overflow:visible;">
      <path
         id="path3875"
         d="M 0.0,0.0 L 5.0,-5.0 L -12.5,0.0 L 5.0,5.0 L 0.0,0.0 z "
         style="fill-rule:evenodd;stroke:#000000;stroke-width:1.0pt;marker-start:none;"
         transform="scale(0.8) rotate(180) translate(12.5,0)" />
    </marker>
  </defs>
  <sodipodi:namedview
     id="base"
     pagecolor="#ffffff"
     bordercolor="#666666"
     borderopacity="1.0"
     inkscape:pageopacity="0.0"
     inkscape:pageshadow="2"
     inkscape:zoom="0.98994949"
     inkscape:cx="307.40961"
     inkscape:cy="712.67776"
     inkscape:document-units="px"
     inkscape:current-layer="layer1"
     showgrid="false"
     inkscape:window-width="1364"
     inkscape:window-height="712"
     inkscape:window-x="0"
     inkscape:window-y="30"
     inkscape:window-maximized="0" />
  <metadata
     id="metadata7">
    <rdf:RDF>
      <cc:Work
         rdf:about="">
        <dc:format>image/svg+xml</dc:format>
        <dc:type
           rdf:resource="http://purl.org/dc/dcmitype/StillImage" />
        <dc:title></dc:title>
      </cc:Work>
    </rdf:RDF>
  </metadata>
  <g
     inkscape:label="Layer 1"
     inkscape:groupmode="layer"
     id="layer1">
    <path
       style="fill:none;stroke:#000000;stroke-width:1px;stroke-linecap:butt;stroke-linejoin:miter;stroke-opacity:1"
       d="m 272.90069,162.31503 0,121.42857 -70,0 0,92.85714 123.57143,0 0,-66.42857 92.85714,0 0,-147.85715 -94.28571,-0.71428 -19.28572,0 z"
       id="path2989"
       inkscape:connector-curvature="0"
       sodipodi:nodetypes="ccccccccccc"
       inkscape:export-filename="/home/mikola/GitHub/mikolalysenko.github.com/Pictures/multitype.png"
       inkscape:export-xdpi="200"
       inkscape:export-ydpi="200" />
    <path
       style="fill:none;stroke:#000000;stroke-width:1px;stroke-linecap:butt;stroke-linejoin:miter;stroke-opacity:1"
       d="m 362.18641,160.17217 0,77.14286 21.42857,0 0,37.14285 19.28571,0 0,-34.28571 15.71429,0"
       id="path2991"
       inkscape:connector-curvature="0"
       inkscape:export-filename="/home/mikola/GitHub/mikolalysenko.github.com/Pictures/multitype.png"
       inkscape:export-xdpi="200"
       inkscape:export-ydpi="200" />
    <path
       style="fill:none;stroke:#000000;stroke-width:1px;stroke-linecap:butt;stroke-linejoin:miter;stroke-opacity:1"
       d="m 300.75783,241.60074 0,22.14286 20.71429,0 0,-22.14286 z"
       id="path2993"
       inkscape:connector-curvature="0"
       sodipodi:nodetypes="ccccc"
       inkscape:export-filename="/home/mikola/GitHub/mikolalysenko.github.com/Pictures/multitype.png"
       inkscape:export-xdpi="200"
       inkscape:export-ydpi="200" />
    <path
       style="fill:none;stroke:#000000;stroke-width:1px;stroke-linecap:butt;stroke-linejoin:miter;stroke-opacity:1"
       d="m 218.61498,318.74359 72.14285,0.71429 0,19.28572 -72.85714,0 z"
       id="path2995"
       inkscape:connector-curvature="0"
       sodipodi:nodetypes="ccccc"
       inkscape:export-filename="/home/mikola/GitHub/mikolalysenko.github.com/Pictures/multitype.png"
       inkscape:export-xdpi="200"
       inkscape:export-ydpi="200" />
    <path
       style="fill:none;stroke:#000000;stroke-width:1px;stroke-linecap:butt;stroke-linejoin:miter;stroke-opacity:1"
       d="m 345.75783,309.45788 0,-79.28571 -24.28571,0 0,-26.42857 -25,0 0,-20.71429 -25,0"
       id="path2997"
       inkscape:connector-curvature="0"
       inkscape:export-filename="/home/mikola/GitHub/mikolalysenko.github.com/Pictures/multitype.png"
       inkscape:export-xdpi="200"
       inkscape:export-ydpi="200" />
    <path
       style="fill:#ff0000;fill-opacity:1;stroke:#000000;stroke-width:0.71428573;stroke-linecap:square;stroke-miterlimit:4;stroke-opacity:1;stroke-dasharray:none;stroke-dashoffset:0"
       d="m 203.57761,330.27478 0,-45.71429 35,0 35,0 0,-50.35714 0,-50.35714 11.07143,0 11.07143,0 0,10.35714 0,10.35714 12.5,0 12.5,0 0,13.21429 0,13.21429 12.14286,0 12.14285,0 0,39.28571 0,39.28571 -9.64285,0 -9.64286,0 0,33.21429 0,33.21429 -61.07143,0 -61.07143,0 0,-45.71429 z m 87.85715,-0.96069 0,-10.24641 -9.7558,-0.46788 c -5.36568,-0.25733 -21.87162,-0.46788 -36.67984,-0.46788 l -26.92405,0 -0.45873,5.89286 c -0.25231,3.24107 -0.46066,8.0625 -0.46302,10.71429 l -0.004,4.82142 37.14286,0 37.14286,0 0,-10.2464 z m 30.71428,-76.53931 0,-11.78571 -11.07143,0 -11.07143,0 0,11.78571 0,11.78571 11.07143,0 11.07143,0 0,-11.78571 z"
       id="path3001"
       inkscape:connector-curvature="0"
       inkscape:export-filename="/home/mikola/GitHub/mikolalysenko.github.com/Pictures/multitype.png"
       inkscape:export-xdpi="200"
       inkscape:export-ydpi="200" />
    <path
       style="fill:#0001ff;fill-opacity:1;stroke:#000000;stroke-width:0.71428573;stroke-linecap:square;stroke-miterlimit:4;stroke-opacity:1;stroke-dasharray:none;stroke-dashoffset:0"
       d="m 346.86333,269.56049 0,-40 -12.14286,0 -12.14286,0 0,-13.21428 0,-13.21429 -12.5,0 -12.5,0 0,-10.35714 0,-10.35714 -11.78571,0 -11.78572,0 0,-9.53014 0,-9.53014 12.97165,-0.46986 c 7.13441,-0.25842 26.74155,-0.46986 43.57143,-0.46986 l 30.59978,0 0,37.85714 0,37.85714 10.71429,0 10.71428,0 0,18.57143 0,18.57143 10.71429,0 10.71428,0 0,-17.14286 0,-17.14285 7.14286,0 7.14286,0 0,34.28571 0,34.28571 -35.71429,0 -35.71428,0 0,-40 z"
       id="path3779"
       inkscape:connector-curvature="0"
       inkscape:export-filename="/home/mikola/GitHub/mikolalysenko.github.com/Pictures/multitype.png"
       inkscape:export-xdpi="200"
       inkscape:export-ydpi="200" />
    <path
       style="fill:#00ff00;fill-opacity:1;stroke:#000000;stroke-width:0.71428573;stroke-linecap:square;stroke-miterlimit:4;stroke-opacity:1;stroke-dasharray:none;stroke-dashoffset:0"
       d="m 384.72047,255.27478 0,-18.57143 -10.71429,0 -10.71428,0 0,-37.23631 0,-37.23632 2.67857,0.44274 c 1.47321,0.24351 13.84821,0.44628 27.5,0.4506 l 24.82143,0.008 0,38.21429 0,38.21428 -8.21429,0 -8.21428,0 0,17.14286 0,17.14286 -8.57143,0 -8.57143,0 0,-18.57143 z"
       id="path3781"
       inkscape:connector-curvature="0"
       inkscape:export-filename="/home/mikola/GitHub/mikolalysenko.github.com/Pictures/multitype.png"
       inkscape:export-xdpi="200"
       inkscape:export-ydpi="200" />
    <path
       style="fill:#ffff00;fill-opacity:1;stroke:#000000;stroke-width:1.01015258;stroke-linecap:square;stroke-miterlimit:4;stroke-opacity:1;stroke-dasharray:none;stroke-dashoffset:0"
       d="m 219.03079,332.94291 c 0.35035,-2.91681 0.64095,-7.00793 0.64578,-9.09137 l 0.009,-3.78807 34.85026,0 34.85026,0 0,9.09137 0,9.09138 -35.49604,0 -35.49605,0 0.63701,-5.30331 0,0 z"
       id="path3787"
       inkscape:connector-curvature="0"
       inkscape:export-filename="/home/mikola/GitHub/mikolalysenko.github.com/Pictures/multitype.png"
       inkscape:export-xdpi="200"
       inkscape:export-ydpi="200" />
    <path
       style="fill:#ff0000;fill-opacity:1;stroke:#000000;stroke-width:0.71428573;stroke-linecap:square;stroke-miterlimit:4;stroke-opacity:1;stroke-dasharray:none;stroke-dashoffset:0"
       d="m 13.547416,554.8042 0,-45.71429 34.99999,0 35,0 0,-50.35714 0,-50.35714 11.07143,0 11.071434,0 0,10.35714 0,10.35714 12.5,0 12.5,0 0,13.21429 0,13.21429 12.14286,0 12.14285,0 0,39.28571 0,39.28571 -9.64285,0 -9.64286,0 0,33.21429 0,33.21429 -61.071434,0 -61.07142,0 0,-45.71429 z m 87.857144,-0.96069 0,-10.24641 -9.755804,-0.46788 c -5.36568,-0.25733 -21.87162,-0.46788 -36.67984,-0.46788 l -26.92406,0 -0.45873,5.89286 c -0.2523,3.24107 -0.46065,8.0625 -0.46301,10.71429 l -0.004,4.82142 37.14286,0 37.142864,0 0,-10.2464 z m 30.71428,-76.53931 0,-11.78571 -11.07143,0 -11.07143,0 0,11.78571 0,11.78571 11.07143,0 11.07143,0 0,-11.78571 z"
       id="path3001-5"
       inkscape:connector-curvature="0"
       inkscape:export-filename="/home/mikola/GitHub/mikolalysenko.github.com/Pictures/multitype.png"
       inkscape:export-xdpi="200"
       inkscape:export-ydpi="200" />
    <path
       style="fill:#00ff00;fill-opacity:1;stroke:#000000;stroke-width:0.71428573;stroke-linecap:square;stroke-miterlimit:4;stroke-opacity:1;stroke-dasharray:none;stroke-dashoffset:0"
       d="m 531.32973,545.12619 0,-18.57143 -10.71429,0 -10.71428,0 0,-37.23631 0,-37.23632 2.67857,0.44274 c 1.47321,0.24351 13.84821,0.44628 27.5,0.4506 l 24.82143,0.008 0,38.21429 0,38.21428 -8.21429,0 -8.21428,0 0,17.14286 0,17.14286 -8.57143,0 -8.57143,0 0,-18.57143 z"
       id="path3781-3"
       inkscape:connector-curvature="0"
       inkscape:export-filename="/home/mikola/GitHub/mikolalysenko.github.com/Pictures/multitype.png"
       inkscape:export-xdpi="200"
       inkscape:export-ydpi="200" />
    <path
       style="fill:#0001ff;fill-opacity:1;stroke:#000000;stroke-width:0.71428573;stroke-linecap:square;stroke-miterlimit:4;stroke-opacity:1;stroke-dasharray:none;stroke-dashoffset:0"
       d="m 383.56212,548.53245 0,-40 -12.14286,0 -12.14286,0 0,-13.21428 0,-13.21429 -12.5,0 -12.5,0 0,-10.35714 0,-10.35714 -11.78571,0 -11.78572,0 0,-9.53014 0,-9.53014 12.97165,-0.46986 c 7.13441,-0.25842 26.74155,-0.46986 43.57143,-0.46986 l 30.59978,0 0,37.85714 0,37.85714 10.71429,0 10.71428,0 0,18.57143 0,18.57143 10.71429,0 10.71428,0 0,-17.14286 0,-17.14285 7.14286,0 7.14286,0 0,34.28571 0,34.28571 -35.71429,0 -35.71428,0 0,-40 z"
       id="path3779-4"
       inkscape:connector-curvature="0"
       inkscape:export-filename="/home/mikola/GitHub/mikolalysenko.github.com/Pictures/multitype.png"
       inkscape:export-xdpi="200"
       inkscape:export-ydpi="200" />
    <path
       style="fill:#ffff00;fill-opacity:1;stroke:#000000;stroke-width:1.01015258;stroke-linecap:square;stroke-miterlimit:4;stroke-opacity:1;stroke-dasharray:none;stroke-dashoffset:0"
       d="m 210.60801,509.65773 c 0.35035,-2.91681 0.64095,-7.00793 0.64578,-9.09137 l 0.009,-3.78807 34.85026,0 34.85026,0 0,9.09137 0,9.09138 -35.49604,0 -35.49604,0 0.637,-5.30331 0,0 z"
       id="path3787-7"
       inkscape:connector-curvature="0"
       inkscape:export-filename="/home/mikola/GitHub/mikolalysenko.github.com/Pictures/multitype.png"
       inkscape:export-xdpi="200"
       inkscape:export-ydpi="200" />
    <path
       style="fill:none;stroke:#000000;stroke-width:1px;stroke-linecap:butt;stroke-linejoin:miter;stroke-opacity:1;marker-end:url(#Arrow1Lend)"
       d="m 190.91883,386.67165 -51.51778,43.43656"
       id="path3861"
       inkscape:connector-curvature="0"
       sodipodi:nodetypes="cc"
       inkscape:export-filename="/home/mikola/GitHub/mikolalysenko.github.com/Pictures/multitype.png"
       inkscape:export-xdpi="200"
       inkscape:export-ydpi="200" />
    <path
       style="fill:none;stroke:#000000;stroke-width:1px;stroke-linecap:butt;stroke-linejoin:miter;stroke-opacity:1;marker-end:url(#Arrow1Lend)"
       d="m 244.45692,390.71227 -4.04061,93.94418"
       id="path3863"
       inkscape:connector-curvature="0"
       sodipodi:nodetypes="cc"
       inkscape:export-filename="/home/mikola/GitHub/mikolalysenko.github.com/Pictures/multitype.png"
       inkscape:export-xdpi="200"
       inkscape:export-ydpi="200" />
    <path
       style="fill:none;stroke:#000000;stroke-width:1px;stroke-linecap:butt;stroke-linejoin:miter;stroke-opacity:1;marker-end:url(#Arrow1Lend)"
       d="m 371.73614,323.03205 2.0203,113.13708"
       id="path3865"
       inkscape:connector-curvature="0"
       sodipodi:nodetypes="cc"
       inkscape:export-filename="/home/mikola/GitHub/mikolalysenko.github.com/Pictures/multitype.png"
       inkscape:export-xdpi="200"
       inkscape:export-ydpi="200" />
    <path
       style="fill:none;stroke:#000000;stroke-width:1px;stroke-linecap:butt;stroke-linejoin:miter;stroke-opacity:1;marker-end:url(#Arrow1Lend)"
       d="m 437.39605,234.13862 85.86297,208.09143"
       id="path3867"
       inkscape:connector-curvature="0"
       sodipodi:nodetypes="cc"
       inkscape:export-filename="/home/mikola/GitHub/mikolalysenko.github.com/Pictures/multitype.png"
       inkscape:export-xdpi="200"
       inkscape:export-ydpi="200" />
  </g>
</svg>
